<svg id="Capa_1" enable-background="new 0 0 512 512" height="512" viewBox="0 0 512 512" width="512" xmlns="http://www.w3.org/2000/svg"><g><g><g><g><g><path d="m133.249 238.231h245.501v35.538h-245.501z" fill="#c9e0fd" transform="matrix(.707 -.707 .707 .707 -106.039 256)"/><g><g><g><path d="m208.134 167.053-40.052 40.052-50.55-19.291c-4.173-1.592-5.318-6.956-2.16-10.114l62.473-62.473c3.118-3.118 8.407-2.047 10.066 2.038z" fill="#c9e0fd"/><path d="m377.515 310.456-67.059 67.059c-4.792 4.792-12.562 4.792-17.354 0l-141.868-141.868c-7.994-7.994-7.994-20.954 0-28.947l55.466-55.466c7.994-7.994 20.954-7.994 28.947 0l141.868 141.868c4.792 4.792 4.792 12.562 0 17.354z" fill="#eaf2ff"/><path d="m310.456 377.515 67.059-67.059c4.792-4.792 4.792-12.562 0-17.354l-50.747-50.747c-20.086 4.155-39.226 14.011-54.814 29.599s-25.444 34.729-29.599 54.814l50.747 50.747c4.792 4.792 12.562 4.792 17.354 0z" fill="#c9e0fd"/></g><circle cx="405.684" cy="405.684" fill="#bcd6f9" r="22.327"/></g></g></g></g><g><g><g><path d="m225.931 383.517-116.794 116.794c-5.598 5.598-14.674 5.598-20.272 0l-77.176-77.176c-5.598-5.598-5.598-14.674 0-20.272l116.794-116.794c5.598-5.598 14.674-5.598 20.272 0l77.176 77.176c5.598 5.598 5.598 14.674 0 20.272z" fill="#9bc4f9"/><path d="m225.931 363.245-46.196-46.196c5.598 5.598 5.598 14.674 0 20.272l-116.794 116.795c-5.598 5.598-14.674 5.598-20.272 0l46.196 46.196c5.598 5.598 14.674 5.598 20.272 0l116.794-116.794c5.598-5.599 5.598-14.675 0-20.273z" fill="#7fb2f9"/></g></g><g><g><path d="m500.311 109.137-116.794 116.794c-5.598 5.598-14.674 5.598-20.272 0l-77.176-77.176c-5.598-5.598-5.598-14.674 0-20.272l116.794-116.794c5.598-5.598 14.674-5.598 20.272 0l77.176 77.176c5.598 5.598 5.598 14.674 0 20.272z" fill="#9bc4f9"/><path d="m500.311 88.865-46.21-46.21c5.598 5.598 5.598 14.674 0 20.272l-116.794 116.794c-5.598 5.598-14.674 5.598-20.272 0l46.21 46.21c5.598 5.598 14.674 5.598 20.272 0l116.794-116.794c5.598-5.598 5.598-14.674 0-20.272z" fill="#7fb2f9"/></g></g></g></g><path d="m272.508 272.32c-8.393 8.393-22 8.393-30.393 0l-32.231-32.231c-8.393-8.393-8.393-22 0-30.393 8.393-8.393 22-8.393 30.393 0l32.231 32.231c8.393 8.393 8.393 22 0 30.393z" fill="#e2916b"/><path d="m432.153 300.835c2.985-2.985 1.798-8.054-2.191-9.435-38.161-13.215-82.205-4.592-112.68 25.882s-39.097 74.518-25.882 112.68c1.381 3.989 6.45 5.176 9.435 2.191z" fill="#9bc4f9"/></g><g><path d="m357.941 231.234c8.516 8.514 22.366 8.512 30.88 0l116.794-116.794c8.513-8.514 8.513-22.366 0-30.88l-77.176-77.175c-8.514-8.512-22.366-8.512-30.88 0l-116.793 116.793c-8.513 8.514-8.513 22.366 0 30.88l20.719 20.719-15.843 15.843-44.69-44.69c-9.601-9.602-24.183-10.633-34.842-3.792l-11.251-27.697c-3.672-9.041-15.398-11.437-22.318-4.52l-62.473 62.473c-7.005 7.005-4.454 18.898 4.789 22.426l27.751 10.59c-7.432 10.883-6.329 25.887 3.322 35.538l5.312 5.313c2.929 2.929 7.678 2.93 10.607.001s2.929-7.678 0-10.607l-5.313-5.314c-5.056-5.056-5.056-13.283 0-18.339l55.467-55.467c5.067-5.067 13.271-5.07 18.34.001l127.267 127.267c-34.786 11.518-62.272 38.971-73.806 73.806l-97.082-97.081c-2.929-2.928-7.678-2.928-10.607 0-2.929 2.93-2.929 7.678 0 10.608l14.505 14.505-15.844 15.843-20.72-20.72c-8.514-8.512-22.366-8.512-30.879 0l-116.792 116.795c-8.514 8.514-8.514 22.366 0 30.88l77.176 77.176c8.513 8.511 22.365 8.513 30.879 0l116.794-116.794c8.534-8.534 8.534-22.346 0-30.88l-20.719-20.719 15.843-15.843 53.222 53.222c-3.305 19.356-1.703 39.229 4.732 57.814 3.192 9.219 14.92 11.944 21.827 5.042l33.936-33.936 35.971 5.343c.696 6.546 3.541 12.904 8.547 17.91 5.815 5.815 13.454 8.722 21.092 8.722s15.276-2.907 21.091-8.722c11.629-11.63 11.629-30.552 0-42.182-5.006-5.006-11.364-7.851-17.91-8.547l-5.342-35.972 33.935-33.935c0-.001 0-.001 0-.001 6.896-6.898 4.184-18.632-5.041-21.825-18.586-6.437-38.459-8.037-57.815-4.733l-53.222-53.222 15.843-15.843zm-204.214-37.634-31.592-12.056 59.586-59.586 12.608 31.04zm-19.941 97.773c2.671-2.671 6.993-2.672 9.665 0l33.284 33.284-35.466 35.466-38.116-38.116zm-41.241 41.241 38.116 38.116-34.311 34.312-38.116-38.116zm-75.553 85.218c-2.665-2.664-2.665-7 0-9.664l30.634-30.634 38.116 38.116-35.466 35.466zm86.841 77.175c-2.665 2.666-7 2.666-9.665 0l-33.284-33.284 35.466-35.466 38.117 38.117zm41.241-41.241-38.117-38.117 34.312-34.311 38.117 38.117zm75.553-85.217c2.671 2.669 2.672 6.993 0 9.664l-30.634 30.634-38.117-38.117 35.466-35.466zm-20.72-41.934-14.522-14.522 15.843-15.843 14.522 14.522zm178.331 67.41-24.959-3.708 37.039-37.039 3.707 24.96c-3.429 1.451-6.642 3.565-9.432 6.355-2.791 2.791-4.904 6.003-6.355 9.432zm27.446-3.16c3.797 0 7.594 1.445 10.484 4.336 5.781 5.78 5.781 15.186 0 20.967-5.779 5.78-15.186 5.782-20.967 0-5.781-5.781-5.781-15.186 0-20.967 2.889-2.891 6.687-4.336 10.483-4.336zm19.108-93.275-127.203 127.202c-5.339-16.949-6.143-35.017-2.307-52.44 8.457-38.415 38.646-68.611 77.069-77.069 16.905-3.723 34.992-3.191 52.441 2.307zm70.215-203.422c2.671 2.669 2.672 6.995 0 9.664l-30.634 30.634-7.406-7.406c-2.93-2.928-7.678-2.928-10.608 0-2.929 2.93-2.929 7.678 0 10.608l7.406 7.406-34.311 34.311-38.116-38.116 34.311-34.311 5.918 5.918c2.931 2.929 7.678 2.928 10.608 0 2.929-2.93 2.929-7.678 0-10.608l-5.918-5.918 35.466-35.466zm-86.84-77.175c2.669-2.671 6.995-2.672 9.664 0l33.284 33.284-35.465 35.465-38.116-38.116zm-41.241 41.241 38.116 38.116-34.311 34.311-38.116-38.116zm-75.553 85.217c-2.665-2.664-2.665-7 0-9.664l30.633-30.633 38.116 38.116-35.465 35.465zm19.398 72.3-14.522-14.522 15.843-15.843 7.251 7.251c.003.003.006.007.009.01s.007.006.01.009l7.251 7.252zm59.96-63.874 38.116 38.116-30.633 30.633c-2.664 2.666-7 2.666-9.664 0l-33.284-33.284z"/><path d="m277.812 277.624c11.303-11.304 11.303-29.696 0-41.001l-32.232-32.231c-11.325-11.328-29.668-11.333-41 0-11.329 11.329-11.331 29.668 0 41l32.232 32.231c11.326 11.329 29.668 11.333 41 .001zm-62.625-62.625c5.467-5.467 14.317-5.469 19.786 0l32.231 32.232c5.455 5.454 5.455 14.331 0 19.785-5.465 5.467-14.317 5.469-19.785 0l-32.232-32.232c-5.467-5.466-5.467-14.318 0-19.785z"/></g></g></svg>